<svg width="157" height="29" viewBox="0 0 157 29" fill="none" xmlns="http://www.w3.org/2000/svg">
<path d="M8.77996 28.44C7.65996 28.44 6.60663 28.3333 5.61996 28.12C4.63329 27.9066 3.69996 27.5866 2.81996 27.16C1.96663 26.7333 1.17996 26.1866 0.459961 25.52L2.29996 22.16L2.53996 21.8L2.81996 21.96C2.87329 22.1733 2.93996 22.4 3.01996 22.64C3.09996 22.8533 3.28663 23.12 3.57996 23.44C4.21996 24 4.95329 24.4533 5.77996 24.8C6.60663 25.12 7.61996 25.28 8.81996 25.28C9.64663 25.28 10.34 25.1866 10.9 25C11.4866 24.7866 11.94 24.5066 12.26 24.16C12.58 23.7866 12.74 23.3733 12.74 22.92C12.74 22.5733 12.6466 22.28 12.46 22.04C12.3 21.7733 12.0466 21.5333 11.7 21.32C11.3533 21.08 10.9 20.8533 10.34 20.64C9.77996 20.4 9.09996 20.1733 8.29996 19.96C6.93996 19.56 5.75329 19.1066 4.73996 18.6C3.72663 18.0666 2.93996 17.44 2.37996 16.72C1.81996 16 1.53996 15.1466 1.53996 14.16C1.53996 13.1733 1.81996 12.3066 2.37996 11.56C2.96663 10.7866 3.79329 10.1733 4.85996 9.71996C5.92663 9.26663 7.19329 9.03996 8.65996 9.03996C9.45996 9.03996 10.2066 9.10663 10.9 9.23996C11.62 9.34663 12.2733 9.51996 12.86 9.75996C13.4733 9.99996 14.0466 10.3066 14.58 10.68C15.1133 11.0266 15.62 11.44 16.1 11.92L13.82 14.96L13.54 14.72C13.5133 14.5066 13.4466 14.3066 13.34 14.12C13.26 13.9333 13.0733 13.6933 12.78 13.4C12.1933 12.9733 11.5533 12.6533 10.86 12.44C10.1666 12.2266 9.45996 12.12 8.73996 12.12C7.80663 12.12 6.97996 12.28 6.25996 12.6C5.56663 12.92 5.21996 13.4 5.21996 14.04C5.21996 14.4133 5.36663 14.76 5.65996 15.08C5.97996 15.4 6.48663 15.72 7.17996 16.04C7.87329 16.3333 8.81996 16.64 10.02 16.96C11.54 17.36 12.7666 17.8266 13.7 18.36C14.6333 18.8666 15.3133 19.4666 15.74 20.16C16.1933 20.8533 16.42 21.6666 16.42 22.6C16.42 23.64 16.1266 24.6133 15.54 25.52C14.98 26.4 14.1266 27.1066 12.98 27.64C11.8333 28.1733 10.4333 28.44 8.77996 28.44Z" fill="#02230B"/>
<path d="M28.5 28.4C26.82 28.4 25.3266 28 24.02 27.2C22.7133 26.3733 21.6733 25.24 20.9 23.8C20.1266 22.3333 19.74 20.6533 19.74 18.76C19.74 16.8933 20.1266 15.24 20.9 13.8C21.6733 12.3333 22.7133 11.1866 24.02 10.36C25.3266 9.50663 26.82 9.07996 28.5 9.07996C30.1533 9.07996 31.6333 9.50663 32.94 10.36C34.2733 11.1866 35.3266 12.3333 36.1 13.8C36.8733 15.24 37.26 16.8933 37.26 18.76C37.26 20.6266 36.8733 22.2933 36.1 23.76C35.3266 25.2 34.2733 26.3333 32.94 27.16C31.6333 27.9866 30.1533 28.4 28.5 28.4ZM28.5 25.16C29.4066 25.16 30.2066 24.8933 30.9 24.36C31.62 23.8 32.18 23.04 32.58 22.08C32.98 21.12 33.18 20 33.18 18.72C33.18 17.4133 32.98 16.28 32.58 15.32C32.18 14.36 31.62 13.6133 30.9 13.08C30.2066 12.5466 29.4066 12.28 28.5 12.28C27.5933 12.28 26.78 12.5466 26.06 13.08C25.3666 13.6133 24.82 14.36 24.42 15.32C24.02 16.28 23.82 17.4133 23.82 18.72C23.82 20 24.02 21.12 24.42 22.08C24.82 23.04 25.3666 23.8 26.06 24.36C26.78 24.8933 27.5933 25.16 28.5 25.16Z" fill="#02230B"/>
<path d="M44.34 12.64H40.38V9.47996H44.34V8.23996C44.34 6.58663 44.6733 5.22663 45.34 4.15996C46.0333 3.06663 46.94 2.26663 48.06 1.75996C49.18 1.22663 50.4066 0.959961 51.74 0.959961C52.9666 0.959961 54.1 1.17329 55.14 1.59996C56.18 2.02663 57.0733 2.66663 57.82 3.51996L56.14 6.27996L55.94 6.59996L55.66 6.43996C55.6066 6.22663 55.5266 6.0133 55.42 5.79996C55.34 5.58663 55.14 5.3333 54.82 5.03996C54.3666 4.6933 53.9266 4.4533 53.5 4.31996C53.0733 4.18663 52.5533 4.11996 51.94 4.11996C51.1933 4.11996 50.54 4.26663 49.98 4.55996C49.4466 4.82663 49.02 5.26663 48.7 5.87996C48.4066 6.46663 48.26 7.2533 48.26 8.23996V9.47996H54.02V12.64H48.26V28H44.34V12.64Z" fill="#02230B"/>
<path d="M70.46 28.36C69.3666 28.36 68.42 28.1866 67.62 27.84C66.8466 27.4666 66.22 26.88 65.74 26.08C65.2866 25.28 64.9666 24.24 64.78 22.96C64.5933 21.68 64.5266 20.12 64.58 18.28L65.1 4.99996L69.18 4.47996L69.58 4.43996L69.62 4.79996C69.4866 4.98663 69.3666 5.1733 69.26 5.35996C69.18 5.54663 69.1133 5.86663 69.06 6.31996L68.66 11.48L68.82 11.92L68.54 18.28C68.46 20.0933 68.5133 21.5066 68.7 22.52C68.8866 23.5066 69.2066 24.2 69.66 24.6C70.1133 24.9733 70.66 25.16 71.3 25.16C72.1533 25.16 72.9133 24.9866 73.58 24.64C74.2733 24.2933 74.9533 23.8666 75.62 23.36L76.5 26.32C75.5933 26.9866 74.6466 27.4933 73.66 27.84C72.6733 28.1866 71.6066 28.36 70.46 28.36ZM60.98 9.47996H74.94L74.9 12.68H60.98V9.47996Z" fill="#02230B"/>
<path d="M82.46 28.04L78.98 9.47996H82.38L84.78 22.88L87.62 11.44H89.78L93.14 22.8C93.4066 20.8266 93.6333 19.1866 93.82 17.88C94.0066 16.5466 94.14 15.44 94.22 14.56C94.3 13.6533 94.3533 12.8933 94.38 12.28C94.4066 11.64 94.42 11.0133 94.42 10.4V9.47996H97.9C97.7133 11.48 97.4733 13.5333 97.18 15.64C96.8866 17.7466 96.5533 19.8533 96.18 21.96C95.8066 24.04 95.42 26.0666 95.02 28.04H91.5L88.66 17.36L85.98 28.04H82.46Z" fill="#02230B"/>
<path d="M106.58 28.44C104.527 28.44 102.927 27.9733 101.78 27.04C100.66 26.08 100.1 24.84 100.1 23.32C100.1 22.3066 100.327 21.4 100.78 20.6C101.26 19.7733 101.927 19.0666 102.78 18.48C103.66 17.8933 104.713 17.44 105.94 17.12C107.167 16.7733 108.553 16.6 110.1 16.6C110.42 16.6 110.753 16.6133 111.1 16.64C111.473 16.64 111.86 16.6533 112.26 16.68C112.687 16.7066 113.113 16.7333 113.54 16.76L113.66 19.6C113.287 19.5466 112.887 19.5066 112.46 19.48C112.06 19.4533 111.66 19.44 111.26 19.44C110.86 19.44 110.487 19.44 110.14 19.44C109.1 19.44 108.193 19.52 107.42 19.68C106.673 19.8133 106.047 20.0266 105.54 20.32C105.06 20.6133 104.7 20.9733 104.46 21.4C104.22 21.8266 104.1 22.32 104.1 22.88C104.1 23.3333 104.18 23.7333 104.34 24.08C104.5 24.4 104.713 24.6533 104.98 24.84C105.273 25.0266 105.607 25.1733 105.98 25.28C106.38 25.36 106.807 25.4 107.26 25.4C108.14 25.4 108.913 25.2533 109.58 24.96C110.247 24.6666 110.807 24.24 111.26 23.68C111.74 23.0933 112.1 22.3733 112.34 21.52C112.58 20.64 112.7 19.6133 112.7 18.44C112.7 16.8133 112.513 15.5466 112.14 14.64C111.793 13.7333 111.273 13.1066 110.58 12.76C109.887 12.4133 109.02 12.24 107.98 12.24C107.127 12.24 106.3 12.3866 105.5 12.68C104.727 12.9466 103.967 13.4533 103.22 14.2L101.1 11.8C102.113 10.84 103.22 10.1466 104.42 9.71996C105.647 9.2933 106.9 9.07996 108.18 9.07996C109.353 9.07996 110.433 9.22663 111.42 9.51996C112.433 9.78663 113.313 10.24 114.06 10.88C114.833 11.52 115.42 12.3866 115.82 13.48C116.247 14.5733 116.46 15.96 116.46 17.64V28H112.3V25.72C111.953 26.2533 111.567 26.7066 111.14 27.08C110.713 27.4266 110.247 27.7066 109.74 27.92C109.26 28.1066 108.753 28.24 108.22 28.32C107.687 28.4 107.14 28.44 106.58 28.44Z" fill="#02230B"/>
<path d="M122.46 9.47996H126.58L126.5 14.76L126.02 14.32C126.153 13.52 126.407 12.8 126.78 12.16C127.153 11.4933 127.607 10.9333 128.14 10.48C128.7 10.0266 129.313 9.67996 129.98 9.43996C130.647 9.1733 131.34 9.03996 132.06 9.03996C133.073 9.03996 133.993 9.2133 134.82 9.55996C135.647 9.90663 136.393 10.4266 137.06 11.12L135.38 14.4L135.22 14.76L134.9 14.6C134.82 14.3866 134.74 14.1733 134.66 13.96C134.58 13.7466 134.38 13.4933 134.06 13.2C133.66 12.9333 133.26 12.7333 132.86 12.6C132.487 12.4666 132.047 12.4 131.54 12.4C130.9 12.4 130.273 12.52 129.66 12.76C129.073 12.9733 128.54 13.32 128.06 13.8C127.58 14.28 127.193 14.8933 126.9 15.64C126.633 16.36 126.5 17.24 126.5 18.28V28.04H122.46V9.47996Z" fill="#02230B"/>
<path d="M149.34 28.44C148.007 28.44 146.78 28.2266 145.66 27.8C144.54 27.3733 143.567 26.76 142.74 25.96C141.94 25.1333 141.313 24.12 140.86 22.92C140.407 21.72 140.18 20.36 140.18 18.84C140.18 17.2933 140.407 15.92 140.86 14.72C141.313 13.4933 141.927 12.4666 142.7 11.64C143.5 10.8133 144.42 10.1733 145.46 9.71996C146.527 9.26663 147.66 9.03996 148.86 9.03996C149.9 9.03996 150.887 9.22663 151.82 9.59996C152.78 9.9733 153.607 10.5333 154.3 11.28C155.02 12 155.58 12.92 155.98 14.04C156.407 15.16 156.62 16.4666 156.62 17.96C156.62 18.2266 156.62 18.5333 156.62 18.88C156.62 19.2 156.607 19.48 156.58 19.72H144.02C144.073 20.68 144.26 21.52 144.58 22.24C144.9 22.9333 145.3 23.5066 145.78 23.96C146.287 24.4133 146.86 24.7466 147.5 24.96C148.14 25.1733 148.807 25.28 149.5 25.28C150.113 25.28 150.673 25.2266 151.18 25.12C151.713 24.9866 152.22 24.7866 152.7 24.52C153.18 24.2533 153.62 23.8933 154.02 23.44L156.1 25.48C155.54 26.1466 154.913 26.7066 154.22 27.16C153.527 27.5866 152.767 27.9066 151.94 28.12C151.14 28.3333 150.273 28.44 149.34 28.44ZM144.1 16.72H152.74C152.74 15.9733 152.647 15.32 152.46 14.76C152.273 14.2 151.993 13.72 151.62 13.32C151.273 12.92 150.847 12.6266 150.34 12.44C149.833 12.2266 149.273 12.12 148.66 12.12C148.073 12.12 147.527 12.2133 147.02 12.4C146.54 12.5866 146.1 12.8666 145.7 13.24C145.3 13.6133 144.953 14.0933 144.66 14.68C144.393 15.24 144.207 15.92 144.1 16.72Z" fill="#02230B"/>
</svg>
