<svg width="100%" height="100%" viewBox="0 0 50 50" fill="none" xmlns="http://www.w3.org/2000/svg">
<path d="M25 4L4 17.3438V32.6523L25 46L46 32.6562V17.3438L25 4ZM25 29.1836L19.0664 25.0703L25 21.0234L30.9336 25.0703L25 29.1836ZM27 17.6055V9.94922L40.4297 18.4844L34.4102 22.6562L27 17.6055ZM23 17.6055L15.5898 22.6562L9.57031 18.4844L23 9.94922V17.6055ZM12.0938 25.043L8 27.832V22.2031L12.0938 25.043ZM15.5703 27.4531L23 32.6055V40.0508L9.58984 31.5273L15.5703 27.4531ZM27 32.6055L34.4297 27.4531L40.4102 31.5273L27 40.0508V32.6055ZM37.9062 25.043L42 22.2031V27.832L37.9062 25.043Z" fill="currentColor"/>
</svg>
