<svg width="349" height="349" viewBox="0 0 349 349" fill="none" xmlns="http://www.w3.org/2000/svg">
<path fill-rule="evenodd" clip-rule="evenodd" d="M150 69C150 80.0457 141.046 89 130 89H48C43.5817 89 40 92.5817 40 97V301C40 305.418 43.5817 309 48 309H252C256.418 309 260 305.418 260 301V219C260 207.954 268.954 199 280 199V199C291.046 199 300 207.954 300 219V301C300 327.51 278.51 349 252 349H48C21.4903 349 0 327.51 0 301V97C0 70.4903 21.4903 49 48 49H130C141.046 49 150 57.9543 150 69V69Z" fill="black"/>
<path d="M139.393 187.91C133.536 193.768 133.536 203.266 139.393 209.124C145.251 214.982 154.749 214.982 160.607 209.124L139.393 187.91ZM348.517 15.0001C348.517 6.7158 341.801 7.16259e-05 333.517 7.16259e-05L198.517 7.16259e-05C190.233 7.16259e-05 183.517 6.7158 183.517 15.0001C183.517 23.2843 190.233 30.0001 198.517 30.0001L318.517 30.0001V150C318.517 158.284 325.233 165 333.517 165C341.801 165 348.517 158.284 348.517 150V15.0001ZM160.607 209.124L344.124 25.6067L322.91 4.39347L139.393 187.91L160.607 209.124Z" fill="black"/>
</svg>
