<svg width="100%" height="100%" viewBox="0 0 50 50" fill="none" xmlns="http://www.w3.org/2000/svg">
<path d="M49.12 9.62786C47.3461 10.4154 45.4447 10.9442 43.4458 11.1842C45.486 9.96164 47.0536 8.02649 47.7886 5.72381C45.8835 6.85264 43.7646 7.67396 41.5182 8.11649C39.718 6.19634 37.1528 5 34.3138 5C28.8609 5 24.4393 9.41784 24.4393 14.8708C24.4393 15.6433 24.5293 16.3971 24.6981 17.1209C16.4925 16.7084 9.22064 12.7781 4.34901 6.80389C3.49769 8.2665 3.01391 9.96164 3.01391 11.7693C3.01391 15.1933 4.75404 18.216 7.4055 19.9899C5.78537 19.9374 4.26275 19.4911 2.9314 18.7523C2.9314 18.7936 2.9314 18.8348 2.9314 18.8761C2.9314 23.6615 6.33667 27.648 10.8483 28.5593C10.0232 28.7844 9.14939 28.9044 8.24932 28.9044C7.61177 28.9044 6.99297 28.8444 6.38917 28.7243C7.64927 32.6434 11.2946 35.5049 15.6111 35.5836C12.2359 38.2313 7.97929 39.8065 3.35143 39.8065C2.55262 39.8065 1.76881 39.7615 1 39.6677C5.36534 42.4729 10.5557 44.1043 16.1324 44.1043C34.2913 44.1043 44.2221 29.0619 44.2221 16.0184C44.2221 15.5908 44.2109 15.1595 44.1959 14.7395C46.1235 13.3482 47.7961 11.608 49.12 9.62786Z" fill="currentColor"/>
</svg>
